<svg xmlns="http://www.w3.org/2000/svg" viewBox="0 0 500 240" width="500" height="240">
	<defs>
		<clipPath clipPathUnits="userSpaceOnUse" id="cp1">
			<path d="M0 0L500 0L500 240L0 240Z" />
		</clipPath>
	</defs>
	<style>
		tspan { white-space:pre }
		.shp0 { fill: #223daf } 
		.shp1 { fill: #f23c79 } 
		.shp2 { fill: #42f5ae } 
		.shp3 { fill: #318aca } 
		.shp4 { fill: #dc79e6 } 
		.shp5 { fill: #60c9dc } 
		.shp6 { fill: #5fc9dc } 
		.shp7 { fill: #be8dbf } 
		.shp8 { fill: #f2f5af } 
		.shp9 { fill: #ffffff } 
	</style>
	<g id="Siri" clip-path="url(#cp1)">
		<g id="Siri">
			<path id="Fill 1" class="shp0" d="M380.45 119.33C379.87 119.32 379.28 119.29 378.67 119.25C376.97 119.06 375.14 118.84 373.29 118.64C367.29 117.77 359.75 116.31 349.27 115.72C346.1 115.55 343.07 115.56 340.12 115.71C339.45 115.45 338.78 115.17 338.1 114.88C320.56 107.04 319.08 105.76 310.27 104.71C306.55 104.2 302.64 104.75 298.81 105.9C297.62 105.63 296.47 105.42 295.36 105.29C289.17 104.42 281.27 107.63 274.61 111.32C269.18 108.93 258.93 102.03 251.04 103.12C246.83 103.7 241.92 107.01 237.71 110.59C235.99 110.38 234.22 110.29 232.42 110.36C228.62 110.5 224.21 112.01 220.21 113.81C208.28 104.72 200.89 104.9 192.83 105.91C189.67 106.3 184.99 107.84 180.06 109.78C174.28 109.71 170.54 111.16 169.04 111.62C160.77 114.15 153.72 116.94 148.95 118.22C148.78 118.27 148.59 118.32 148.4 118.37L148.4 118.37C145.87 117.8 144.25 117.36 137.31 117.36C128.05 117.36 109.86 119.61 97.51 119.86C97.51 119.86 97.51 119.86 97.5 119.86C85.16 120.12 63 120.39 63 120.39C63 120.39 85.16 120.67 97.5 120.92C109.85 121.18 128.05 123.42 137.31 123.42C144.25 123.42 145.87 122.99 148.4 122.41C148.59 122.47 148.78 122.52 148.95 122.56C153.72 123.84 160.77 126.63 169.04 129.17C170.54 129.62 174.28 131.07 180.06 131C184.99 132.94 189.67 134.48 192.83 134.88C200.89 135.88 208.28 136.07 220.21 126.97C224.21 128.77 228.62 130.28 232.42 130.42C234.22 130.49 235.99 130.41 237.71 130.19C241.92 133.77 246.83 137.09 251.04 137.67C258.93 138.76 269.18 131.86 274.61 129.47C281.27 133.15 289.17 136.37 295.36 135.49C296.47 135.36 297.62 135.15 298.81 134.89C302.64 136.03 306.55 136.58 310.27 136.08C319.08 135.02 320.56 133.75 338.1 125.9C338.78 125.61 339.45 125.33 340.12 125.07C343.07 125.22 346.1 125.24 349.27 125.06C359.75 124.47 367.29 123.02 373.29 122.14C375.14 121.94 376.97 121.72 378.67 121.53C379.28 121.49 379.87 121.46 380.45 121.46C383.72 121.41 433.95 120.56 437 120.39C433.76 120.21 380.78 119.33 380.45 119.33" />
			<path id="Fill 4" class="shp1" d="M281.81 126.37C278.86 127.54 276.47 128.66 274.75 129.4C274.7 129.42 274.65 129.45 274.61 129.47C281.27 133.15 289.17 136.37 295.36 135.49C296.47 135.36 297.62 135.15 298.81 134.89C292.47 132.99 286.37 129.47 281.81 126.37" />
			<path id="Fill 6" class="shp1" d="M373.29 122.14C375.14 121.94 376.97 121.72 378.67 121.53C377 121.64 375.23 121.86 373.29 122.14" />
			<path id="Fill 8" class="shp1" d="M164.76 124.29C160.68 123.35 152.19 121.63 152.06 121.57C151.23 121.77 150.42 121.96 149.71 122.12C149.5 122.17 149.3 122.21 149.11 122.25C148.86 122.31 148.63 122.36 148.4 122.41C148.59 122.47 148.78 122.52 148.95 122.56C153.72 123.84 160.77 126.63 169.04 129.17C170.54 129.62 174.28 131.07 180.06 131C174.74 128.91 169.12 126.35 164.76 124.29" />
			<path id="Fill 10" class="shp1" d="M228.48 121.07C227.69 121.39 226.92 121.7 226.15 122C224.05 123.9 222.07 125.55 220.21 126.97C224.21 128.77 228.62 130.28 232.42 130.42C234.22 130.49 235.99 130.41 237.72 130.19C233.41 126.53 229.83 122.61 228.48 121.07" />
			<path id="Fill 12" class="shp2" d="M328.99 124.03C315.34 129.07 306.18 133.21 298.81 134.88C302.64 136.03 306.55 136.58 310.27 136.08C319.08 135.02 320.56 133.74 338.1 125.9C338.78 125.61 339.45 125.33 340.12 125.07C336.32 124.88 332.65 124.49 328.99 124.03" />
			<path id="Fill 14" class="shp3" d="M363.73 122.83C359.35 122.77 355.81 122.23 352.59 121.69C348.65 122.32 344.48 123.36 340.12 125.07C343.07 125.22 346.1 125.24 349.27 125.06C359.75 124.47 367.29 123.02 373.29 122.14C369.92 122.51 366.49 122.83 363.73 122.83" />
			<path id="Fill 16" class="shp4" d="M274.75 129.4C276.47 128.66 278.86 127.54 281.81 126.37C277.11 123.19 274.05 120.42 274.05 120.42C272.1 122.2 270.04 123.92 267.74 125.29C269.75 126.62 272.09 128.08 274.61 129.47C274.65 129.45 274.7 129.42 274.75 129.4" />
			<path id="Fill 18" class="shp4" d="M384.19 121.03C386.56 120.89 423.1 120.53 434.31 120.42L437 120.39L429.85 120.42C414.27 120.49 379.93 120.64 373.06 120.74C367.38 120.83 360.45 120.44 352.59 121.69C355.81 122.23 359.35 122.77 363.73 122.83C366.49 122.83 369.92 122.51 373.29 122.14C375.23 121.86 377 121.64 378.67 121.53C380.81 121.29 382.73 121.09 384.19 121.03" />
			<path id="Fill 20" class="shp4" d="M248.01 127.4C239.71 125.07 229.93 120.46 229.93 120.46C229.45 120.67 228.96 120.87 228.48 121.07C229.83 122.61 233.41 126.53 237.71 130.19C241.31 129.75 244.74 128.74 248.01 127.4" />
			<path id="Fill 22" class="shp5" d="M352.59 121.69C346.5 120.68 341.54 119.71 334.16 122.16C332.37 122.79 330.64 123.42 328.99 124.03C332.65 124.49 336.32 124.88 340.12 125.07C344.48 123.36 348.65 122.32 352.59 121.69" />
			<path id="Fill 24" class="shp4" d="M192.14 128.83C191.77 128.83 191.41 128.83 191.05 128.82C187.07 128.75 183.6 128.4 180.6 128.02C180.32 127.98 180.06 127.95 179.79 127.91C178.99 127.81 178.23 127.7 177.51 127.6C173.63 127.06 169.74 125.9 166.39 124.67C165.89 124.55 165.34 124.43 164.76 124.29C169.12 126.35 174.74 128.91 180.06 131C183.42 130.96 187.46 130.4 192.14 128.83" />
			<path id="Fill 26" class="shp4" d="M226.15 122C222.81 123.29 219.64 124.36 216.62 125.23C217.75 125.82 218.96 126.41 220.21 126.97C222.07 125.55 224.05 123.9 226.15 122" />
			<path id="Fill 28" class="shp6" d="M208.41 120.41L208.41 120.41C208.41 120.41 208.41 120.41 208.41 120.41L208.4 120.41L208.4 120.41C208.02 120.67 207.64 120.93 207.27 121.18C206.52 121.68 205.78 122.16 205.06 122.61C204.69 122.84 204.33 123.06 203.97 123.27C202.54 124.13 201.14 124.91 199.79 125.6C199.11 125.94 198.44 126.27 197.78 126.57C197.13 126.88 196.48 127.17 195.84 127.43C194.57 127.97 193.34 128.43 192.14 128.83C198.84 128.85 206.93 128.03 216.62 125.23C212.05 122.87 208.64 120.56 208.42 120.41L208.41 120.41Z" />
			<path id="Fill 30" class="shp1" d="M295.36 105.29C289.17 104.42 281.27 107.63 274.61 111.32C274.65 111.34 274.7 111.36 274.75 111.38C276.47 112.12 278.86 113.25 281.81 114.41C286.37 111.32 292.47 107.79 298.81 105.9C297.62 105.63 296.47 105.42 295.36 105.29" />
			<path id="Fill 32" class="shp1" d="M373.29 118.64C375.23 118.92 377 119.14 378.67 119.25C376.97 119.06 375.14 118.84 373.29 118.64" />
			<path id="Fill 34" class="shp1" d="M169.04 111.62C160.77 114.15 153.72 116.94 148.95 118.22C148.78 118.27 148.59 118.32 148.4 118.37C148.62 118.42 148.86 118.48 149.11 118.53C149.3 118.57 149.5 118.62 149.71 118.66C150.42 118.82 151.23 119.01 152.06 119.21C152.19 119.15 160.68 117.43 164.76 116.49C169.12 114.43 174.74 111.88 180.06 109.78C174.28 109.71 170.54 111.16 169.04 111.62" />
			<path id="Fill 36" class="shp1" d="M237.72 110.59C235.99 110.38 234.22 110.29 232.42 110.36C228.62 110.5 224.21 112.01 220.21 113.81C222.07 115.23 224.05 116.88 226.15 118.79C226.92 119.08 227.69 119.39 228.48 119.71C229.83 118.17 233.41 114.25 237.72 110.59" />
			<path id="Fill 38" class="shp2" d="M338.1 114.88C320.56 107.04 319.08 105.76 310.27 104.71C306.55 104.2 302.64 104.75 298.81 105.9C306.18 107.57 315.34 111.71 328.99 116.75C332.65 116.29 336.32 115.9 340.12 115.71C339.45 115.45 338.78 115.17 338.1 114.88" />
			<path id="Fill 40" class="shp3" d="M373.29 118.64C367.29 117.77 359.75 116.31 349.27 115.72C346.1 115.55 343.07 115.56 340.12 115.71C344.48 117.42 348.65 118.46 352.59 119.09C355.81 118.55 359.35 118.01 363.73 117.95C366.49 117.95 369.92 118.27 373.29 118.64" />
			<path id="Fill 42" class="shp4" d="M274.61 111.32C272.09 112.71 269.75 114.16 267.74 115.49C270.04 116.87 272.1 118.58 274.05 120.36C274.05 120.36 277.11 117.6 281.81 114.41C278.86 113.25 276.47 112.12 274.75 111.38C274.7 111.36 274.65 111.34 274.61 111.32" />
			<path id="Fill 44" class="shp4" d="M384.19 119.75C382.73 119.69 380.81 119.49 378.67 119.25C377 119.14 375.23 118.92 373.29 118.64C369.92 118.27 366.49 117.95 363.73 117.95C359.35 118.01 355.81 118.55 352.59 119.09C360.45 120.34 367.38 119.95 373.06 120.04C379.93 120.15 414.27 120.3 429.85 120.36L437 120.39L434.31 120.36C423.1 120.25 386.56 119.89 384.19 119.75" />
			<path id="Fill 46" class="shp4" d="M228.48 119.71C228.96 119.91 229.44 120.11 229.93 120.32C229.93 120.32 239.71 115.71 248.01 113.38C244.74 112.04 241.31 111.03 237.72 110.59C233.41 114.25 229.83 118.17 228.48 119.71" />
			<path id="Fill 48" class="shp5" d="M328.99 116.75C330.64 117.37 332.36 117.99 334.16 118.62C341.54 121.07 346.5 120.1 352.59 119.09C348.65 118.46 344.48 117.42 340.12 115.71C336.32 115.9 332.65 116.29 328.99 116.75" />
			<path id="Fill 50" class="shp4" d="M164.76 116.49C165.34 116.36 165.89 116.23 166.39 116.11C169.74 114.88 173.63 113.72 177.51 113.18C178.23 113.08 178.99 112.98 179.79 112.87C180.06 112.84 180.32 112.8 180.6 112.77C183.6 112.38 187.07 112.03 191.05 111.96C191.41 111.96 191.77 111.95 192.14 111.95C187.46 110.39 183.42 109.83 180.06 109.78C174.74 111.88 169.12 114.43 164.76 116.49" />
			<path id="Fill 52" class="shp4" d="M216.62 115.55C219.64 116.43 222.81 117.49 226.15 118.79C224.05 116.88 222.07 115.23 220.21 113.81C218.96 114.37 217.75 114.97 216.62 115.55" />
			<path id="Fill 54" class="shp6" d="M195.84 113.35C196.48 113.62 197.13 113.9 197.78 114.21C198.44 114.51 199.11 114.84 199.79 115.18C201.14 115.88 202.54 116.65 203.97 117.51C204.33 117.73 204.69 117.95 205.06 118.17C205.78 118.63 206.52 119.1 207.27 119.6C207.64 119.85 208.02 120.11 208.4 120.37L208.4 120.37L208.41 120.37C208.41 120.37 208.41 120.37 208.41 120.37L208.41 120.37L208.42 120.37C208.64 120.22 212.05 117.92 216.62 115.55C206.93 112.75 198.84 111.93 192.14 111.95C193.34 112.35 194.57 112.81 195.84 113.35" />
			<path id="Fill 56" class="shp7" d="M149.11 122.25C149.3 122.21 149.5 122.17 149.71 122.12C149.61 122.13 149.51 122.14 149.41 122.15C149.21 122.17 149.02 122.18 148.84 122.19C148.75 122.19 148.66 122.19 148.58 122.19C148.42 122.19 148.26 122.19 148.11 122.18C148.06 122.17 148.02 122.17 147.98 122.17C147.84 122.16 147.69 122.15 147.55 122.13C147.53 122.13 147.52 122.13 147.51 122.13L148.4 122.41C148.63 122.36 148.86 122.31 149.11 122.25" />
			<path id="Fill 58" class="shp7" d="M148.4 118.37L147.51 118.66C147.52 118.65 147.53 118.65 147.55 118.65C147.69 118.64 147.84 118.62 147.98 118.61C148.02 118.61 148.06 118.61 148.11 118.6C148.26 118.6 148.42 118.59 148.58 118.59C148.66 118.59 148.75 118.59 148.84 118.59C149.02 118.6 149.21 118.61 149.41 118.63C149.51 118.64 149.61 118.65 149.71 118.66C149.5 118.62 149.3 118.57 149.11 118.53C148.86 118.48 148.62 118.42 148.4 118.37" />
			<path id="Fill 60" class="shp8" d="M334.16 118.62C332.36 117.99 330.65 117.37 328.99 116.75C315.34 111.72 306.18 107.57 298.81 105.9C292.47 107.79 286.37 111.32 281.81 114.41C277.11 117.6 274.05 120.36 274.05 120.36L274.05 120.43C274.05 120.43 277.11 123.19 281.81 126.37C286.37 129.47 292.47 132.99 298.81 134.89C306.18 133.22 315.34 129.07 328.99 124.03C330.65 123.42 332.36 122.79 334.16 122.16C337.39 121.09 340.15 120.67 342.75 120.62L342.75 120.16C340.16 120.11 337.38 119.69 334.16 118.62" />
			<path id="Fill 62" class="shp9" d="M121.58 120.97C122.41 120.96 125.65 120.94 126.43 120.93C129.94 120.9 133.12 120.88 135.73 120.88C138.19 120.88 140.26 121 141.98 121.19C142.23 121.22 144.12 121.47 144.32 121.51C144.52 121.54 144.71 121.57 144.9 121.61C145.75 121.76 146.48 121.92 147.1 122.07C147.25 122.09 147.4 122.11 147.55 122.13C147.69 122.15 148.06 122.17 148.11 122.18C148.27 122.19 148.42 122.19 148.58 122.19C148.66 122.19 149.21 122.17 149.41 122.15C149.51 122.14 149.61 122.13 149.71 122.12C150.42 121.96 151.23 121.77 152.06 121.57C152.19 121.63 160.68 123.35 164.76 124.29C165.35 124.43 165.9 124.55 166.39 124.67C169.73 125.9 173.64 127.06 177.51 127.6C178.23 127.7 180.32 127.98 180.6 128.02C183.6 128.4 187.07 128.75 191.05 128.82C191.41 128.83 191.77 128.83 192.14 128.83C193.34 128.43 194.57 127.97 195.84 127.43C196.48 127.17 197.13 126.88 197.78 126.57C198.44 126.27 199.11 125.94 199.79 125.6C201.14 124.91 202.54 124.13 203.97 123.27C204.33 123.06 204.69 122.84 205.06 122.61C205.78 122.16 206.52 121.68 207.27 121.18C207.64 120.93 208.02 120.67 208.4 120.41L208.4 120.41L208.41 120.41C208.41 120.41 208.41 120.41 208.41 120.41L208.41 120.41L208.42 120.41C208.64 120.56 212.05 122.87 216.62 125.23C219.64 124.36 222.81 123.29 226.15 122C226.92 121.7 227.69 121.39 228.48 121.07C228.96 120.87 229.44 120.67 229.93 120.46C229.93 120.46 239.71 125.07 248.01 127.4C250.83 128.2 253.48 128.73 255.51 128.73C260.34 128.73 264.3 127.35 267.74 125.29C270.04 123.92 272.1 122.2 274.05 120.43C274.05 120.43 277.11 123.19 281.81 126.37C288.09 123.89 296.88 121.23 307.09 121.67C314.91 122 321.93 123.13 328.99 124.03C330.64 123.42 332.37 122.79 334.16 122.16C341.54 119.71 346.5 120.68 352.59 121.69C360.45 120.44 367.38 120.83 373.05 120.74C379.93 120.64 414.27 120.49 429.85 120.42L437 120.39L429.85 120.36C414.27 120.3 379.93 120.15 373.05 120.04C367.38 119.95 360.45 120.34 352.59 119.09C346.5 120.1 341.54 121.07 334.16 118.62C332.37 117.99 330.64 117.37 328.99 116.75C321.93 117.65 314.91 118.78 307.09 119.11C296.88 119.55 288.09 116.89 281.81 114.41C277.11 117.6 274.05 120.36 274.05 120.36C272.1 118.58 270.04 116.87 267.74 115.49C264.3 113.43 260.34 112.05 255.51 112.05C253.48 112.05 250.83 112.59 248.01 113.38C239.71 115.71 229.93 120.32 229.93 120.32C229.44 120.11 228.96 119.91 228.48 119.71C227.69 119.39 226.92 119.08 226.15 118.79C222.81 117.49 219.64 116.43 216.62 115.55C212.05 117.92 208.64 120.22 208.42 120.37L208.41 120.37L208.41 120.37C208.41 120.37 208.41 120.37 208.41 120.37L208.4 120.37L208.4 120.37C208.02 120.11 207.64 119.85 207.27 119.6C206.52 119.1 205.78 118.63 205.06 118.17C204.69 117.95 204.33 117.73 203.97 117.51C202.54 116.65 201.14 115.88 199.79 115.18C199.11 114.84 198.44 114.51 197.78 114.21C197.13 113.9 196.48 113.62 195.84 113.35C194.57 112.81 193.34 112.35 192.14 111.95C191.77 111.95 191.41 111.96 191.05 111.96C187.07 112.03 183.6 112.38 180.6 112.77C180.32 112.8 178.23 113.08 177.51 113.18C173.64 113.72 169.73 114.88 166.39 116.11C165.9 116.23 165.35 116.36 164.76 116.49C160.68 117.43 152.19 119.15 152.06 119.21C151.23 119.01 150.42 118.82 149.71 118.66C149.61 118.65 149.51 118.64 149.41 118.63C149.21 118.61 148.66 118.59 148.58 118.59C148.42 118.59 148.27 118.6 148.11 118.6C148.06 118.61 147.69 118.64 147.55 118.65C147.4 118.67 147.25 118.69 147.1 118.71C146.48 118.86 145.75 119.02 144.9 119.18C144.71 119.21 144.52 119.24 144.32 119.28C144.12 119.31 142.23 119.57 141.98 119.59C140.26 119.78 138.19 119.9 135.73 119.9C133.12 119.9 129.94 119.88 126.43 119.85C125.65 119.85 122.41 119.82 121.58 119.81C118.66 119.79 63 120.39 63 120.39C63 120.39 118.66 120.99 121.58 120.97" />
		</g>
	</g>
</svg>